Coordinates
version=1
nRows=34
nColumns=38
inDegrees=no

Units are S.I. units (second, meters, Newtons, ...)
If the header above contains a line with 'inDegrees', this indicates whether rotational values are in degrees (yes) or radians (no).

endheader
time	pelvis_tilt	pelvis_list	pelvis_rotation	pelvis_tx	pelvis_ty	pelvis_tz	hip_flexion_r	hip_adduction_r	hip_rotation_r	knee_angle_r	ankle_angle_r	subtalar_angle_r	mtp_angle_r	hip_flexion_l	hip_adduction_l	hip_rotation_l	knee_angle_l	ankle_angle_l	subtalar_angle_l	mtp_angle_l	lumbar_extension	lumbar_bending	lumbar_rotation	arm_flex_r	arm_add_r	arm_rot_r	elbow_flex_r	pro_sup_r	wrist_flex_r	wrist_dev_r	arm_flex_l	arm_add_l	arm_rot_l	elbow_flex_l	pro_sup_l	wrist_flex_l	wrist_dev_l
30	-2.63476	1.53517	-1.94065	0.826932	-0.745053	1.07747	-0.0554008	-0.10803	-0.209327	0.473348	-0.263704	0	0	0.0755387	0.0291712	-0.124245	0.410133	-0.261196	0	0	-0.252595	0.0121427	-0.0499923	0.297029	-0.440477	0.314763	1.62651	1.5708	0	0	0.282833	-0.162629	0.181331	1.4642	1.5708	0	0
30.01	-2.7187	1.53338	-1.85751	0.82537	-0.743651	1.07761	-0.0548623	-0.108171	-0.205991	0.482005	-0.263909	0	0	0.0728874	0.0257916	-0.135113	0.415631	-0.259781	0	0	-0.25324	0.0141388	-0.050532	0.303965	-0.443169	0.317653	1.61793	1.5708	0	0	0.284968	-0.158288	0.181502	1.45981	1.5708	0	0
30.02	-3.06097	1.5233	-1.51543	0.82291	-0.744399	1.08126	-0.110745	-0.0957154	-0.293306	0.354726	-0.364959	0	0	0.0547546	0.0186782	-0.116347	0.399859	-0.266573	0	0	-0.274237	0.0292618	-0.0424932	0.312763	-0.45396	0.312282	1.61454	1.5708	0	0	0.301419	-0.145692	0.188949	1.44596	1.5708	0	0
30.03	-3.0943	1.52099	-1.48229	0.821394	-0.743149	1.08152	-0.109525	-0.0966888	-0.289669	0.362734	-0.369293	0	0	0.0501352	0.0183337	-0.116898	0.398592	-0.266199	0	0	-0.275773	0.0303377	-0.0422675	0.31712	-0.456359	0.311737	1.6084	1.5708	0	0	0.304998	-0.142032	0.191649	1.44152	1.5708	0	0
30.04	-2.85567	1.52355	-1.72054	0.820931	-0.740255	1.07889	-0.0529304	-0.112502	-0.19652	0.512683	-0.279592	0	0	0.0508238	0.0288734	-0.127703	0.401924	-0.260235	0	0	-0.260815	0.0152002	-0.047362	0.320771	-0.456877	0.320115	1.59487	1.5708	0	0	0.302276	-0.147478	0.196068	1.43881	1.5708	0	0
30.05	0.264285	1.54435	1.37713	0.825347	-0.72764	1.06997	0.0418699	-0.0986432	-0.115272	0.541794	-0.265078	0	0	0.107425	-0.00271292	-0.249766	0.405414	-0.242488	0	0	-0.147983	0.0191455	0.0158766	0.26933	-0.461839	0.313974	1.59078	1.5708	0	0	0.248102	-0.128766	0.190846	1.42948	1.5708	0	0
30.06	2.13251	1.54568	-0.533047	0.823828	-0.731896	1.07441	0.0272539	-0.0841008	-0.0518778	0.564696	-0.277315	0	0	0.0607253	-0.0177141	-0.299496	0.397648	-0.240421	0	0	-0.207874	0.0437394	0.0539268	0.318194	-0.494761	0.336928	1.58897	1.5708	0	0	0.271008	-0.102343	0.182109	1.42145	1.5708	0	0
30.07	0.451678	1.54793	1.18883	0.822611	-0.725439	1.07062	0.0518392	-0.0996482	-0.105529	0.570837	-0.275216	0	0	0.0972875	-0.0031988	-0.25135	0.400466	-0.242613	0	0	-0.149875	0.0229192	0.0162152	0.282052	-0.466801	0.317242	1.57307	1.5708	0	0	0.25638	-0.122466	0.198445	1.41634	1.5708	0	0
30.08	2.2026	1.54001	-0.603575	0.821025	-0.729653	1.07505	0.0385178	-0.0839761	-0.0423601	0.594796	-0.289758	0	0	0.0503953	-0.0181852	-0.300913	0.391898	-0.240733	0	0	-0.209684	0.0480694	0.0537251	0.331242	-0.499913	0.34151	1.57118	1.5708	0	0	0.278738	-0.0955396	0.18871	1.40831	1.5708	0	0
30.09	0.596055	1.54727	1.04241	0.819964	-0.723163	1.07089	0.0708882	-0.100616	-0.0914106	0.608417	-0.286988	0	0	0.0905067	-0.00332036	-0.253068	0.393848	-0.242901	0	0	-0.146678	0.0260334	0.0198605	0.290091	-0.47278	0.316996	1.5566	1.5708	0	0	0.265204	-0.114166	0.208282	1.39994	1.5708	0	0
30.1	0.718292	1.54814	0.91913	0.818656	-0.722171	1.07128	0.0792485	-0.10077	-0.0841642	0.627716	-0.294744	0	0	0.0848543	-0.00368304	-0.254372	0.389876	-0.243727	0	0	-0.14784	0.0280715	0.0213811	0.295729	-0.476094	0.317505	1.54837	1.5708	0	0	0.270434	-0.109807	0.212877	1.39212	1.5708	0	0
30.11	0.852925	1.54794	0.783611	0.817192	-0.721216	1.0718	0.0881459	-0.100016	-0.075541	0.646089	-0.303212	0	0	0.0792547	-0.00415899	-0.254863	0.384673	-0.245681	0	0	-0.149268	0.0308124	0.0228248	0.301312	-0.479877	0.317667	1.54019	1.5708	0	0	0.27544	-0.104482	0.216972	1.38444	1.5708	0	0
30.12	3.11581	1.5061	-1.41122	0.809731	-0.732478	1.08151	0.00133652	-0.116582	-0.146133	0.648063	-0.324752	0	0	0.0104921	0.0223496	-0.129313	0.378957	-0.257451	0	0	-0.269606	0.031216	-0.0381217	0.360191	-0.477814	0.317317	1.53205	1.5708	0	0	0.343118	-0.114079	0.233168	1.38001	1.5708	0	0
30.13	1.05665	1.5466	0.577345	0.81473	-0.719321	1.07237	0.110575	-0.0987575	-0.0579087	0.689612	-0.321209	0	0	0.0696918	-0.00516904	-0.257744	0.37688	-0.24531	0	0	-0.150085	0.0341352	0.0296543	0.308055	-0.487525	0.313487	1.52497	1.5708	0	0	0.286321	-0.0934774	0.227749	1.36823	1.5708	0	0
30.14	3.06681	1.49343	-1.36248	0.807095	-0.731499	1.08266	0.0145605	-0.115703	-0.130286	0.692212	-0.342453	0	0	-0.00745672	0.0191363	-0.129516	0.372949	-0.255054	0	0	-0.282575	0.0363144	-0.0331271	0.37358	-0.487077	0.31611	1.51738	1.5708	0	0	0.358668	-0.102235	0.243011	1.36457	1.5708	0	0
30.15	1.3997	1.54623	0.230578	0.812741	-0.717836	1.07316	0.130852	-0.0969183	-0.037625	0.737677	-0.339188	0	0	0.0550096	-0.00612784	-0.261712	0.368736	-0.243211	0	0	-0.157165	0.0353077	0.0428445	0.310897	-0.497057	0.30254	1.51391	1.5708	0	0	0.304459	-0.0809597	0.244809	1.34709	1.5708	0	0
30.16	1.60759	1.54481	0.0206755	0.811958	-0.717238	1.07368	0.139541	-0.0942729	-0.0254007	0.759931	-0.348464	0	0	0.0460281	-0.00714134	-0.264012	0.363866	-0.243407	0	0	-0.161713	0.0363436	0.0470792	0.317026	-0.500932	0.302597	1.50525	1.5708	0	0	0.312328	-0.0758365	0.250222	1.33771	1.5708	0	0
30.17	1.7829	1.54214	-0.157186	0.811416	-0.716642	1.07423	0.148259	-0.0903392	-0.0117536	0.781443	-0.357393	0	0	0.0368815	-0.00869057	-0.266789	0.358616	-0.243777	0	0	-0.166668	0.0377109	0.050788	0.324894	-0.503983	0.304564	1.49595	1.5708	0	0	0.319229	-0.0718696	0.254201	1.33008	1.5708	0	0
30.18	1.89874	1.53905	-0.275324	0.810731	-0.715797	1.07469	0.157212	-0.0866968	0.000295742	0.802138	-0.365532	0	0	0.028176	-0.00996367	-0.269785	0.352771	-0.244315	0	0	-0.170468	0.0392875	0.0533121	0.33297	-0.506711	0.307836	1.48659	1.5708	0	0	0.324403	-0.067741	0.256391	1.3233	1.5708	0	0
30.19	2.01172	1.53564	-0.38939	0.809944	-0.715024	1.07521	0.164834	-0.0832786	0.010685	0.821585	-0.37283	0	0	0.019226	-0.0108185	-0.27135	0.347231	-0.245021	0	0	-0.175105	0.0407018	0.0541018	0.342161	-0.509027	0.312364	1.47681	1.5708	0	0	0.329848	-0.0642195	0.258382	1.31613	1.5708	0	0
30.2	2.11115	1.53163	-0.489674	0.809181	-0.71436	1.07581	0.171831	-0.0793896	0.0206292	0.840153	-0.379093	0	0	0.0103052	-0.0117892	-0.272668	0.342093	-0.24579	0	0	-0.180341	0.0423203	0.0543926	0.352568	-0.511286	0.318338	1.46658	1.5708	0	0	0.335496	-0.0614735	0.260583	1.30906	1.5708	0	0
30.21	2.15776	1.52789	-0.536843	0.808456	-0.713626	1.07633	0.179155	-0.0754082	0.0283909	0.854847	-0.382422	0	0	0.00364784	-0.013296	-0.274057	0.338301	-0.24645	0	0	-0.184763	0.0441611	0.0541455	0.361938	-0.512585	0.323319	1.45798	1.5708	0	0	0.33987	-0.059402	0.262108	1.30434	1.5708	0	0
30.22	2.18732	1.5243	-0.567404	0.807832	-0.712916	1.07685	0.186781	-0.0712267	0.0357405	0.86792	-0.383581	0	0	-0.00241679	-0.014869	-0.275786	0.334445	-0.247277	0	0	-0.18842	0.046372	0.0537472	0.372347	-0.513697	0.330419	1.44874	1.5708	0	0	0.343721	-0.0577567	0.262715	1.29957	1.5708	0	0
30.23	2.19899	1.52111	-0.580333	0.80727	-0.71217	1.0773	0.194568	-0.0668486	0.042753	0.877755	-0.382292	0	0	-0.00739448	-0.0165149	-0.277994	0.331227	-0.248017	0	0	-0.191416	0.0486888	0.0531424	0.383014	-0.514374	0.338274	1.4397	1.5708	0	0	0.347146	-0.0565619	0.262616	1.29521	1.5708	0	0
30.24	2.2033	1.51808	-0.58585	0.806771	-0.71138	1.07772	0.202037	-0.0623853	0.0488719	0.884016	-0.379193	0	0	-0.012056	-0.0182259	-0.280272	0.327967	-0.248966	0	0	-0.194196	0.0508485	0.0523537	0.393433	-0.514545	0.346224	1.43098	1.5708	0	0	0.350273	-0.0553076	0.261471	1.29129	1.5708	0	0
30.25	2.20512	1.51536	-0.588602	0.806304	-0.710549	1.07814	0.209053	-0.0584213	0.0532663	0.886904	-0.37512	0	0	-0.0165764	-0.019406	-0.28123	0.323928	-0.250611	0	0	-0.196723	0.0529339	0.0513321	0.403527	-0.514431	0.354318	1.42274	1.5708	0	0	0.353215	-0.0546225	0.260143	1.28786	1.5708	0	0
30.26	2.20546	1.5133	-0.589656	0.805847	-0.709679	1.07854	0.215788	-0.0554976	0.0557544	0.886411	-0.37171	0	0	-0.0215292	-0.019166	-0.279099	0.317159	-0.25301	0	0	-0.199011	0.0545452	0.0502493	0.41296	-0.514184	0.362019	1.41526	1.5708	0	0	0.355974	-0.0544037	0.258889	1.28493	1.5708	0	0
30.27	2.20964	1.51175	-0.594573	0.805376	-0.708794	1.079	0.221887	-0.0532964	0.0580991	0.882332	-0.36881	0	0	-0.028755	-0.0167366	-0.271615	0.304078	-0.256956	0	0	-0.201005	0.0560174	0.0484565	0.423579	-0.513524	0.371588	1.40681	1.5708	0	0	0.358192	-0.0550094	0.257188	1.28233	1.5708	0	0
30.28	2.21625	1.50915	-0.60126	0.804908	-0.707931	1.07967	0.226678	-0.0492187	0.0525322	0.867942	-0.368889	0	0	-0.036314	-0.0157304	-0.264587	0.292401	-0.26019	0	0	-0.204321	0.0583769	0.0465377	0.433764	-0.512622	0.380121	1.39905	1.5708	0	0	0.360598	-0.0549823	0.254838	1.27967	1.5708	0	0
30.29	2.20179	1.50857	-0.587406	0.804461	-0.706951	1.0799	0.232617	-0.0479766	0.0544898	0.858593	-0.360551	0	0	-0.0401814	-0.014553	-0.261186	0.284531	-0.261896	0	0	-0.204463	0.059835	0.0452381	0.442374	-0.512042	0.38818	1.39203	1.5708	0	0	0.362242	-0.0543345	0.252248	1.27646	1.5708	0	0
30.3	2.16629	1.50968	-0.552313	0.804051	-0.705887	1.07974	0.239843	-0.0487413	0.0605084	0.850785	-0.351842	0	0	-0.0403551	-0.0134241	-0.260032	0.28064	-0.261342	0	0	-0.201606	0.0604944	0.0448466	0.448438	-0.51173	0.394021	1.38607	1.5708	0	0	0.363901	-0.053839	0.251566	1.2726	1.5708	0	0
30.31	2.06769	1.50908	-0.453601	0.803816	-0.704821	1.07908	0.249856	-0.0442654	0.0609845	0.835442	-0.345539	0	0	-0.0326576	-0.0185804	-0.264875	0.289865	-0.256823	0	0	-0.195107	0.0636748	0.0473548	0.450045	-0.513272	0.395557	1.38189	1.5708	0	0	0.367025	-0.0520416	0.254651	1.26618	1.5708	0	0
30.32	2.01586	1.50939	-0.403558	0.803634	-0.703463	1.07891	0.256662	-0.0419013	0.0633486	0.81539	-0.342898	0	0	-0.0321878	-0.0188842	-0.267103	0.287249	-0.256455	0	0	-0.191044	0.0642685	0.052101	0.45027	-0.515154	0.395245	1.37857	1.5708	0	0	0.370013	-0.0495164	0.258317	1.25955	1.5708	0	0
30.33	2.00189	1.5097	-0.389335	0.803501	-0.702487	1.07892	0.261021	-0.0410445	0.0638252	0.794346	-0.340206	0	0	-0.0326337	-0.018416	-0.266254	0.286267	-0.254177	0	0	-0.190902	0.0634787	0.0553169	0.451048	-0.516595	0.392993	1.37647	1.5708	0	0	0.374936	-0.0477509	0.26254	1.25429	1.5708	0	0
